<?xml version="1.0"?>
<svg xmlns="http://www.w3.org/2000/svg" xmlns:xlink="http://www.w3.org/1999/xlink" xmlns:svgjs="http://svgjs.com/svgjs" version="1.1" width="512" height="512" x="0" y="0" viewBox="0 0 128 128" style="enable-background:new 0 0 512 512" xml:space="preserve"><g><linearGradient xmlns="http://www.w3.org/2000/svg" id="linear-gradient" gradientUnits="userSpaceOnUse" x1="100.097" x2="26.153" y1="113.84" y2="39.895"><stop stop-opacity="1" stop-color="#000000" offset="0"/><stop stop-opacity="1" stop-color="#f6ff39" offset="1"/></linearGradient><path xmlns="http://www.w3.org/2000/svg" d="m79 99.961a1.75 1.75 0 0 1 -1.75 1.75h-.542a1.75 1.75 0 0 1 0-3.5h.542a1.75 1.75 0 0 1 1.75 1.75zm-36.125-33.437a1.75 1.75 0 0 0 0 3.5h.75a1.75 1.75 0 0 0 0-3.5zm71.854-9.378v6.375a1.75 1.75 0 0 1 -1.75 1.75h-8.1a1.743 1.743 0 0 1 -1.524-.905l-1.1 3.708 6.323 11.592a.453.453 0 0 1 .015.044 1.726 1.726 0 0 1 .2.794v16.015a5.184 5.184 0 0 1 -4.864 5.159v5.756a6.237 6.237 0 0 1 -6.23 6.229h-6.886a6.236 6.236 0 0 1 -6.229-6.229v-7.473a1.75 1.75 0 0 1 1.75-1.75h17.266a1.694 1.694 0 0 0 1.692-1.692v-14.265h-4.865a7.552 7.552 0 1 1 -12.724 0h-38.249l1.024 2.986h26.544a1.75 1.75 0 0 1 0 3.5h-27.794a1.749 1.749 0 0 1 -1.656-1.183l-1.818-5.3h-7.207a7.552 7.552 0 1 1 -12.724 0h-4.865v14.262a1.694 1.694 0 0 0 1.692 1.692h47.1a1.75 1.75 0 0 1 0 3.5h-43.928v5.723a2.733 2.733 0 0 0 2.73 2.729h6.885a2.733 2.733 0 0 0 2.729-2.729 1.75 1.75 0 0 1 3.5 0 6.236 6.236 0 0 1 -6.229 6.229h-6.885a6.237 6.237 0 0 1 -6.23-6.229v-5.756a5.184 5.184 0 0 1 -4.864-5.159v-16.019a1.737 1.737 0 0 1 .194-.786c.007-.016.012-.037.02-.052l6.328-11.588-1.1-3.708a1.742 1.742 0 0 1 -1.524.905h-8.1a1.75 1.75 0 0 1 -1.75-1.75v-6.375a1.751 1.751 0 0 1 1.75-1.75h8.1a1.75 1.75 0 0 1 1.75 1.75v1.754h.5a1.753 1.753 0 0 1 1.674 1.25l.789 2.672 6.4-16.7a8.969 8.969 0 0 1 8.326-5.722h6.785a38.509 38.509 0 0 1 -1.627-4.985 50.412 50.412 0 0 1 -1.45-13.2 1.751 1.751 0 0 1 1.222-1.631c7.917-2.505 13.856-4.9 16.692-6.1a1.755 1.755 0 0 1 1.368 0c2.836 1.2 8.775 3.6 16.692 6.1a1.751 1.751 0 0 1 1.222 1.631 50.416 50.416 0 0 1 -1.45 13.2 33.224 33.224 0 0 1 -4.848 10.985h10.014a2.935 2.935 0 0 1 2.725 1.876l5.122 13.376a1.749 1.749 0 0 1 -1.634 2.376h-57.048a1.749 1.749 0 0 1 -1.634-2.376l5.124-13.377a2.929 2.929 0 0 1 2.725-1.875h6.185a1.75 1.75 0 1 1 0 3.5h-5.783l-4.071 10.624h51.954l-4.066-10.624h-12.565a24.965 24.965 0 0 1 -8.717 5.579 1.753 1.753 0 0 1 -1.254 0 25 25 0 0 1 -13.239-11.579h-8.444a5.451 5.451 0 0 0 -5.059 3.48l-7.333 19.144h6.827a1.75 1.75 0 0 1 0 3.5h-8.332l-4.762 8.73h81.938l-4.762-8.73h-48.082a1.75 1.75 0 0 1 0-3.5h46.577l-7.333-19.148a5.451 5.451 0 0 0 -5.059-3.48 1.75 1.75 0 0 1 0-3.5 8.969 8.969 0 0 1 8.327 5.729l6.395 16.7.789-2.672a1.753 1.753 0 0 1 1.679-1.254h.5v-1.75a1.75 1.75 0 0 1 1.75-1.75h8.1a1.751 1.751 0 0 1 1.754 1.747zm-66.71-33.62a47.028 47.028 0 0 0 1.35 11.023c2.2 8.667 6.829 14.52 13.756 17.408 6.927-2.888 11.553-8.741 13.756-17.408a47.039 47.039 0 0 0 1.35-11.023c-6.876-2.221-12.172-4.315-15.106-5.54-2.934 1.225-8.225 3.319-15.106 5.54zm-28.394 35.374h-4.6v2.875h4.6zm80.8 48.538v-5.723h-12.341v5.723a2.733 2.733 0 0 0 2.729 2.729h6.887a2.733 2.733 0 0 0 2.728-2.733zm-68.239-25.184a4.053 4.053 0 1 0 4.051 4.053 4.057 4.057 0 0 0 -4.051-4.053zm61.878 0a4.053 4.053 0 1 0 4.053 4.053 4.056 4.056 0 0 0 -4.053-4.053zm17.165-23.354h-4.6v2.875h4.6zm-51.453-19.737a1.747 1.747 0 0 0 1.251.527 1.748 1.748 0 0 0 1.25-.525l8.36-8.537a1.75 1.75 0 1 0 -2.5-2.449l-7.107 7.258-2.916-2.987a1.75 1.75 0 1 0 -2.5 2.445z" fill="url(#linear-gradient)" data-original="url(#linear-gradient)" style=""/></g></svg>
