<?xml version="1.0"?>
<svg xmlns="http://www.w3.org/2000/svg" xmlns:xlink="http://www.w3.org/1999/xlink" xmlns:svgjs="http://svgjs.com/svgjs" version="1.1" width="512" height="512" x="0" y="0" viewBox="0 0 128 128" style="enable-background:new 0 0 512 512" xml:space="preserve" class=""><g><linearGradient xmlns="http://www.w3.org/2000/svg" id="a" gradientUnits="userSpaceOnUse" x1="97.275" x2="31.22" y1="97.013" y2="30.958"><stop stop-opacity="1" stop-color="#000000" offset="0"/><stop stop-opacity="1" stop-color="#fff23e" offset="0.965"/></linearGradient><path xmlns="http://www.w3.org/2000/svg" d="m100.33 90.968a1.75 1.75 0 0 1 .256 2.462q-.77.95-1.59 1.859a1.75 1.75 0 1 1 -2.6-2.342q.758-.842 1.474-1.722a1.75 1.75 0 0 1 2.46-.257zm-31.271 8.3a1.75 1.75 0 0 1 -.507-1.515l1.631-10.713a21.866 21.866 0 0 1 18.617-18.282c3.647-.488 6.949-.959 9.364-1.31a1.75 1.75 0 0 1 1.982 1.991 36.208 36.208 0 0 1 -29.558 30.3 1.724 1.724 0 0 1 -.3.027 1.748 1.748 0 0 1 -1.229-.495zm3.335-3.494a32.707 32.707 0 0 0 23.849-24.514c-2.035.291-4.423.624-6.981.967a18.347 18.347 0 0 0 -15.619 15.343zm-43.21-36.816a1.749 1.749 0 0 1 -.592-1.659 36.294 36.294 0 0 1 71.35.062 1.749 1.749 0 0 1 -1.72 2.069 1.729 1.729 0 0 1 -.6-.1c-.754-.272-1.6-.6-2.541-.955-6.427-2.463-17.191-6.575-30.819-6.575a75.839 75.839 0 0 0 -24.272 4.1c-2.633.877-4.942 1.774-6.8 2.5-.834.323-1.592.617-2.272.869a1.753 1.753 0 0 1 -1.734-.311zm3.6-4.161c1.729-.668 3.785-1.447 6.1-2.22a79.233 79.233 0 0 1 25.378-4.277c13.875 0 24.792 4.023 31.5 6.584a32.8 32.8 0 0 0 -62.982-.084zm-3.912 13.148a1.737 1.737 0 0 1 1.491-.5c2.415.351 5.717.822 9.364 1.31a21.866 21.866 0 0 1 18.613 18.288l1.632 10.713a1.748 1.748 0 0 1 -2.034 1.987 36.208 36.208 0 0 1 -29.557-30.3 1.751 1.751 0 0 1 .491-1.498zm3.409 3.315a32.707 32.707 0 0 0 23.849 24.517l-1.25-8.207a18.346 18.346 0 0 0 -15.618-15.343c-2.562-.343-4.947-.676-6.981-.967zm31.981-54.01a46.75 46.75 0 0 0 0 93.5 46.265 46.265 0 0 0 20.868-4.906 1.75 1.75 0 1 0 -1.565-3.131 42.792 42.792 0 0 1 -19.3 4.537 43.206 43.206 0 1 1 41.365-30.593c-.26.851-.551 1.708-.867 2.548a1.75 1.75 0 1 0 3.277 1.231c.341-.909.656-1.835.937-2.755a46.783 46.783 0 0 0 -44.715-60.431zm0 54.945a8.195 8.195 0 1 1 8.195-8.195 8.2 8.2 0 0 1 -8.195 8.195zm0-3.5a4.7 4.7 0 1 0 -4.696-4.695 4.7 4.7 0 0 0 4.696 4.695z" fill="url(#a)" data-original="url(#a)" style=""/></g></svg>
