<?xml version="1.0"?>
<svg xmlns="http://www.w3.org/2000/svg" xmlns:xlink="http://www.w3.org/1999/xlink" xmlns:svgjs="http://svgjs.com/svgjs" version="1.1" width="512" height="512" x="0" y="0" viewBox="0 0 496 496" style="enable-background:new 0 0 512 512" xml:space="preserve" class=""><g transform="matrix(1,-2.465190328815662e-32,2.465190328815662e-32,1,5.684341886080802e-14,0)"><linearGradient xmlns="http://www.w3.org/2000/svg" id="a" gradientUnits="userSpaceOnUse" x1="248" x2="248" y1="432" y2="0"><stop stop-opacity="1" stop-color="#000000" offset="0"/><stop stop-opacity="1" stop-color="#d8ff00" offset="1"/></linearGradient><path xmlns="http://www.w3.org/2000/svg" d="m241.28125 48h-87.417969c-15.519531 0-30.480469 6.519531-41.039062 17.894531l-12 12.921875 251.351562 245.183594 95.222657-98.894531-167.230469-161.402344c-10.496094-10.128906-24.304688-15.703125-38.886719-15.703125zm110.535156 253.304688-228.648437-223.039063 1.375-1.480469c7.554687-8.121094 18.234375-12.785156 29.320312-12.785156h87.417969c10.414062 0 20.277344 3.984375 27.773438 11.214844l155.746093 150.296875zm-38.402344-272.273438c-19.46875-18.71875-45.070312-29.03125-72.085937-29.03125h-87.464844c-28.824219 0-56.597656 12.113281-76.207031 33.230469l-67.472656 72.671875c-6.566406 7.066406-10.183594 16.265625-10.183594 25.914062 0 9.945313 3.816406 19.351563 10.726562 26.496094l17.761719 18.335938 5.632813-4.144532c14.054687-10.359375 31.429687-14.527344 48.894531-11.574218 26.625 4.46875 48.089844 26.238281 52.191406 52.925781 2.761719 17.90625-1.832031 35.535156-12.933593 49.648437l-4.335938 5.511719 145.992188 149.550781c8.34375 8.539063 19.964843 13.433594 31.894531 13.433594 12.0625 0 23.785156-4.992188 32.152343-13.703125l155.617188-162.152344c8-8.335937 12.40625-19.296875 12.40625-30.847656v-1.738281c0-12.054688-4.984375-23.757813-13.679688-32.117188zm166.585938 196.265625c0 7.40625-2.824219 14.429687-7.960938 19.773437l-129.117187 134.539063-169.265625-169.265625-11.3125 11.3125 169.496094 169.503906-12.433594 12.945313-145.757812-145.761719-11.3125 11.3125 144.191406 144.191406c-3.375 1.375-7.007813 2.152344-10.703125 2.152344-7.648438 0-15.097657-3.136719-20.441407-8.609375l-136.398437-139.726563c10.855469-16.558593 15.128906-36.273437 12.046875-56.25-5.144531-33.414062-32.023438-60.660156-65.359375-66.269531-19.351563-3.257812-38.816406.519531-55.199219 10.542969l-8.25-8.511719c-4.015625-4.136719-6.222656-9.589843-6.222656-15.359375 0-5.59375 2.097656-10.9375 5.902344-15.03125l67.480468-72.664062c16.59375-17.875 40.097657-28.121094 64.480469-28.121094h87.472657c22.855468 0 44.519531 8.726562 61 24.566406l168.902343 162.410156c5.570313 5.359376 8.761719 12.855469 8.761719 20.582032zm-304-129.296875h96v16h-96zm64 64h96v16h-96zm64 64h96v16h-96zm0 0" fill="url(#a)" data-original="url(#a)" style=""/></g></svg>
