<?xml version="1.0"?>
<svg xmlns="http://www.w3.org/2000/svg" xmlns:xlink="http://www.w3.org/1999/xlink" xmlns:svgjs="http://svgjs.com/svgjs" version="1.1" width="512" height="512" x="0" y="0" viewBox="0 0 512 512" style="enable-background:new 0 0 512 512" xml:space="preserve"><g><linearGradient xmlns="http://www.w3.org/2000/svg" id="linear-gradient" gradientUnits="userSpaceOnUse" x1="196" x2="196" y1="476.622" y2="81.856"><stop stop-opacity="1" stop-color="#000000" offset="0"/><stop stop-opacity="1" stop-color="#ffff62" offset="0.972972972972973"/></linearGradient><linearGradient xmlns="http://www.w3.org/2000/svg" xmlns:xlink="http://www.w3.org/1999/xlink" id="linear-gradient-3" x1="436" x2="436" xlink:href="#linear-gradient" y1="476.622" y2="81.856"/><linearGradient xmlns="http://www.w3.org/2000/svg" xmlns:xlink="http://www.w3.org/1999/xlink" id="linear-gradient-5" x1="76" x2="76" xlink:href="#linear-gradient" y1="476.622" y2="81.856"/><linearGradient xmlns="http://www.w3.org/2000/svg" xmlns:xlink="http://www.w3.org/1999/xlink" id="linear-gradient-7" x1="316" x2="316" xlink:href="#linear-gradient" y1="476.622" y2="81.856"/><path xmlns="http://www.w3.org/2000/svg" d="m231.19 50.37h-70.38a10.011 10.011 0 0 0 -10 10v321.58a10.007 10.007 0 0 0 8.317 9.847l12.922 61.891a10.047 10.047 0 0 0 9.781 7.942h28.34a10.051 10.051 0 0 0 9.784-7.954l12.919-61.876a10.007 10.007 0 0 0 8.317-9.847v-321.583a10.011 10.011 0 0 0 -10-10zm-22.65 399.26h-25.08l-12.042-57.68h49.164zm20.65-69.68h-66.38v-18.52h66.38zm0-30.52h-66.38v-18.53h66.38zm0-30.53h-66.38v-195.48h66.38zm0-207.48h-66.38v-18.53h66.38zm0-30.53h-66.38v-18.52h66.38z" fill="url(#linear-gradient)" data-original="url(#linear-gradient)" style=""/><path xmlns="http://www.w3.org/2000/svg" d="m179.51 285.89h32.98a6 6 0 0 0 6-6v-117.46a6 6 0 0 0 -6-6h-32.98a6 6 0 0 0 -6 6v61.051a6 6 0 0 0 12 0v-55.051h20.98v105.46h-20.98v-24.89a6 6 0 0 0 -12 0v30.89a6 6 0 0 0 6 6z" fill="url(#linear-gradient)" data-original="url(#linear-gradient)" style=""/><path xmlns="http://www.w3.org/2000/svg" d="m471.19 50.37h-70.38a10.011 10.011 0 0 0 -10 10v321.58a10.007 10.007 0 0 0 8.317 9.847l12.922 61.891a10.047 10.047 0 0 0 9.781 7.942h28.34a10.051 10.051 0 0 0 9.784-7.954l12.919-61.876a10.007 10.007 0 0 0 8.317-9.847v-321.583a10.011 10.011 0 0 0 -10-10zm-22.65 399.26h-25.08l-12.042-57.68h49.164zm20.65-69.68h-66.38v-18.52h66.38zm0-30.52h-66.38v-18.53h66.38zm0-238.01h-9.19a6 6 0 0 0 0 12h9.19v195.48h-66.38v-195.48h32.19a6 6 0 0 0 0-12h-32.19v-18.53h66.38zm0-30.53h-66.38v-18.52h66.38z" fill="url(#linear-gradient-3)" data-original="url(#linear-gradient-3)" style=""/><path xmlns="http://www.w3.org/2000/svg" d="m413.51 162.43v117.46a6 6 0 0 0 6 6h32.98a6 6 0 0 0 6-6v-117.46a6 6 0 0 0 -6-6h-32.98a6 6 0 0 0 -6 6zm12 6h20.98v105.46h-20.98z" fill="url(#linear-gradient-3)" data-original="url(#linear-gradient-3)" style=""/><path xmlns="http://www.w3.org/2000/svg" d="m112.873 120.2-12.922-61.888a10.047 10.047 0 0 0 -9.781-7.942h-28.34a10.051 10.051 0 0 0 -9.784 7.954l-12.919 61.876a10.007 10.007 0 0 0 -8.317 9.847v321.583a10.011 10.011 0 0 0 10 10h70.38a10.011 10.011 0 0 0 10-10v-321.58a10.007 10.007 0 0 0 -8.317-9.85zm-49.413-57.83h25.08l12.042 57.68h-49.164zm45.73 387.26h-66.38v-18.52h66.38zm0-30.52h-66.38v-18.53h66.38zm0-30.53h-66.38v-195.48h66.38zm0-238.01h-32.19a6 6 0 0 0 0 12h32.19v18.53h-66.38v-18.53h13.19a6 6 0 0 0 0-12h-13.19v-18.52h66.38z" fill="url(#linear-gradient-5)" data-original="url(#linear-gradient-5)" style=""/><path xmlns="http://www.w3.org/2000/svg" d="m59.51 355.57h32.98a6 6 0 0 0 6-6v-117.46a6 6 0 0 0 -6-6h-32.98a6 6 0 0 0 -6 6v117.46a6 6 0 0 0 6 6zm6-117.46h20.98v105.46h-20.98z" fill="url(#linear-gradient-5)" data-original="url(#linear-gradient-5)" style=""/><g xmlns="http://www.w3.org/2000/svg" fill="url(#linear-gradient-7)"><path d="m352.873 120.2-12.922-61.888a10.047 10.047 0 0 0 -9.781-7.942h-28.34a10.051 10.051 0 0 0 -9.784 7.954l-12.919 61.876a10.007 10.007 0 0 0 -8.317 9.847v321.583a10.011 10.011 0 0 0 10 10h70.38a10.011 10.011 0 0 0 10-10v-321.58a10.007 10.007 0 0 0 -8.317-9.85zm-49.413-57.83h25.08l12.042 57.68h-49.164zm45.73 387.26h-66.38v-18.52h66.38zm0-61.05h-12.7a6 6 0 0 0 0 12h12.7v18.53h-66.38v-18.53h28.19a6 6 0 0 0 0-12h-28.19v-195.48h66.38zm0-207.48h-66.38v-18.53h66.38zm0-30.53h-66.38v-18.52h66.38z" fill=""/><path d="m299.51 355.57h32.98a6 6 0 0 0 6-6v-117.46a6 6 0 0 0 -6-6h-32.98a6 6 0 0 0 -6 6v117.46a6 6 0 0 0 6 6zm6-117.46h20.98v105.46h-20.98z" fill=""/></g></g></svg>
