<?xml version="1.0"?>
<svg xmlns="http://www.w3.org/2000/svg" xmlns:xlink="http://www.w3.org/1999/xlink" xmlns:svgjs="http://svgjs.com/svgjs" version="1.1" width="512" height="512" x="0" y="0" viewBox="0 0 128 128" style="enable-background:new 0 0 512 512" xml:space="preserve" class=""><g><linearGradient xmlns="http://www.w3.org/2000/svg" id="linear-gradient" gradientUnits="userSpaceOnUse" x1="98.277" x2="29.729" y1="112.596" y2="44.047"><stop stop-opacity="1" stop-color="#000000" offset="0.1776061776061776"/><stop stop-opacity="1" stop-color="#e1ff00" offset="1"/></linearGradient><path xmlns="http://www.w3.org/2000/svg" d="m47.375 109.329a1.75 1.75 0 0 1 -1.75 1.75h-1.25a1.75 1.75 0 0 1 0-3.5h1.25a1.75 1.75 0 0 1 1.75 1.75zm56.4-6.131-5.538-39.009a6.943 6.943 0 0 0 -6.837-5.939h-11.869a1.75 1.75 0 0 0 0 3.5h11.869a3.426 3.426 0 0 1 3.376 2.932l5.536 39.009a3.41 3.41 0 0 1 -3.377 3.889h-43.435a1.75 1.75 0 0 0 0 3.5h43.431a6.909 6.909 0 0 0 6.842-7.881zm-47.744-3.198a10.919 10.919 0 0 1 -10.906-10.906v-15.938a10.9 10.9 0 0 1 4.808-9.043 1.75 1.75 0 1 1 1.959 2.9 7.406 7.406 0 0 0 -3.267 6.143v15.938a7.414 7.414 0 0 0 7.406 7.406h15.938a7.414 7.414 0 0 0 7.406-7.406v-15.938a7.414 7.414 0 0 0 -7.406-7.406h-1.125l-.595 15.442a1.75 1.75 0 0 1 -1.749 1.683h-9a1.75 1.75 0 0 1 -1.749-1.683l-.751-19.442h-20.4a3.425 3.425 0 0 0 -3.376 2.932l-1.224 8.638h5.5a1.75 1.75 0 0 1 0 3.5h-5.994l-.363 2.555h5.482a1.75 1.75 0 0 1 0 3.5h-5.979l-.363 2.555h5.467a1.75 1.75 0 0 1 0 3.5h-5.963l-.363 2.556h5.451a1.75 1.75 0 0 1 0 3.5h-5.947l-1.235 8.705a3.41 3.41 0 0 0 3.377 3.889h6.43a1.75 1.75 0 1 1 0 3.5h-6.431a6.909 6.909 0 0 1 -6.842-7.881l1.4-9.839c0-.042-.012-.081-.012-.124a1.737 1.737 0 0 1 .118-.617l.763-5.38c0-.02-.006-.039-.006-.059a1.73 1.73 0 0 1 .089-.524l.79-5.566a1.739 1.739 0 0 1 .056-.4l2.342-16.505a6.942 6.942 0 0 1 6.833-5.935h20.267l-.051-1.329h-4.233a1.75 1.75 0 0 1 0-3.5h21.084a31.611 31.611 0 0 1 2.833-13.428 13.776 13.776 0 0 0 -13.141-19.558 13.975 13.975 0 0 0 -13.138 13.482 13.605 13.605 0 0 0 1.079 5.617 38.922 38.922 0 0 1 2.6 8.754 1.75 1.75 0 1 1 -3.452.574 35.46 35.46 0 0 0 -2.373-7.962 17.077 17.077 0 0 1 -1.353-7.053 17.31 17.31 0 0 1 16.478-16.909 17.27 17.27 0 0 1 16.469 24.538 28.162 28.162 0 0 0 -2.5 12.014v1.682a1.75 1.75 0 0 1 -1.75 1.75h-4.235l-.205 5.329h.99a10.919 10.919 0 0 1 10.906 10.905v15.938a10.919 10.919 0 0 1 -10.906 10.906zm10.785-20.625.865-22.454h-7.362l.865 22.454zm-4.83-53.252a1.757 1.757 0 0 0 .512-.076c.122-.037.245-.072.371-.106a1.75 1.75 0 0 0 -.9-3.381q-.249.066-.489.14a1.75 1.75 0 0 0 .511 3.424zm-5.417 6.018a7.707 7.707 0 0 1 2.514-4.257 1.75 1.75 0 0 0 -2.3-2.637 11.192 11.192 0 0 0 -3.683 6.446 1.75 1.75 0 0 0 3.472.447z" fill="url(#linear-gradient)" data-original="url(#linear-gradient)" style=""/></g></svg>
